<svg width="50" height="50" viewBox="0 0 50 50" fill="none" xmlns="http://www.w3.org/2000/svg">
<path d="M18.7501 28.6458C13.8751 28.6458 4.16675 31.0833 4.16675 35.9375V39.5833H33.3334V35.9375C33.3334 31.0833 23.6251 28.6458 18.7501 28.6458ZM9.04175 35.4166C10.7917 34.2083 15.0209 32.8125 18.7501 32.8125C22.4792 32.8125 26.7084 34.2083 28.4584 35.4166H9.04175ZM18.7501 25C22.7709 25 26.0417 21.7291 26.0417 17.7083C26.0417 13.6875 22.7709 10.4166 18.7501 10.4166C14.7292 10.4166 11.4584 13.6875 11.4584 17.7083C11.4584 21.7291 14.7292 25 18.7501 25ZM18.7501 14.5833C20.4792 14.5833 21.8751 15.9791 21.8751 17.7083C21.8751 19.4375 20.4792 20.8333 18.7501 20.8333C17.0209 20.8333 15.6251 19.4375 15.6251 17.7083C15.6251 15.9791 17.0209 14.5833 18.7501 14.5833ZM33.4168 28.7708C35.8334 30.5208 37.5001 32.8541 37.5001 35.9375V39.5833H45.8334V35.9375C45.8334 31.7291 38.5418 29.3333 33.4168 28.7708ZM31.2501 25C35.2709 25 38.5418 21.7291 38.5418 17.7083C38.5418 13.6875 35.2709 10.4166 31.2501 10.4166C30.1251 10.4166 29.0834 10.6875 28.1251 11.1458C29.4376 13 30.2084 15.2708 30.2084 17.7083C30.2084 20.1458 29.4376 22.4166 28.1251 24.2708C29.0834 24.7291 30.1251 25 31.2501 25Z" fill="#51A4F1"/>
</svg>
