<svg width="50" height="50" viewBox="0 0 50 50" fill="none" xmlns="http://www.w3.org/2000/svg">
<path d="M43.7499 16.6667H30.6041L32.5833 7.14587L32.6458 6.47921C32.6458 5.62504 32.2916 4.83337 31.7291 4.27087L29.5208 2.08337L15.8124 15.8125C15.0416 16.5625 14.5833 17.6042 14.5833 18.75V39.5834C14.5833 41.875 16.4583 43.75 18.7499 43.75H37.4999C39.2291 43.75 40.7083 42.7084 41.3333 41.2084L47.6249 26.5209C47.8124 26.0417 47.9166 25.5417 47.9166 25V20.8334C47.9166 18.5417 46.0416 16.6667 43.7499 16.6667ZM43.7499 25L37.4999 39.5834H18.7499V18.75L27.7916 9.70837L25.4791 20.8334H43.7499V25ZM2.08325 18.75H10.4166V43.75H2.08325V18.75Z" fill="#51A4F1"/>
</svg>
