<svg width="299" height="301" viewBox="0 0 299 301" fill="none" xmlns="http://www.w3.org/2000/svg">
<path d="M1.90289 120.498C13.5434 58.9256 63.548 11.2247 125.232 1.39623C129.722 0.680383 155.34 -0.0548158 156.196 0.00322619C178.059 1.78318 199.195 6.6442 218.702 16.9322C275.75 46.9979 310.066 112.585 295.752 181.651C282.477 245.695 228.337 294.233 163.62 300.482C149.195 301.875 135.098 300.613 121.678 294.804C110.139 289.817 102.927 281.231 101.412 268.433C100.345 259.306 102.061 250.455 104.864 241.806C110.576 224.181 119.649 208.258 129.828 192.954C154.306 156.16 183.396 123.246 214.403 91.9757C214.878 91.5677 215.381 91.1944 215.908 90.8584L218.793 130.167H219.486L237.521 62.8434L170.813 81.0106L170.899 81.8377L209.898 84.7881C208.965 85.8087 208.456 86.4085 207.903 86.9647C183.05 111.72 156.937 135.038 128.915 156.102C111.812 168.954 94.1134 180.877 74.6789 189.96C63.5769 195.136 52.1479 199.315 39.7574 199.977C23.1597 200.863 11.3893 193.288 5.19646 177.757C2.48467 170.884 1.04223 163.711 0.321011 156.393C-0.0876809 152.16 -0.530029 133.364 1.90289 120.498Z" fill="#51A4F1"/>
</svg>
