<svg width="341" height="333" viewBox="0 0 341 333" fill="none" xmlns="http://www.w3.org/2000/svg">
<path d="M2.17018 133.023C15.4458 65.0501 72.4745 12.3913 142.823 1.54135C147.944 0.7511 177.161 -0.0605132 178.137 0.00356151C203.07 1.96852 227.176 7.33478 249.423 18.692C314.485 51.8827 353.621 124.287 337.296 200.531C322.156 271.232 260.412 324.814 186.603 331.713C170.153 333.251 154.075 331.857 138.77 325.444C125.61 319.939 117.385 310.462 115.657 296.333C114.44 286.257 116.398 276.486 119.594 266.939C126.109 247.482 136.456 229.904 148.065 213.009C175.982 172.391 209.157 136.056 244.52 101.535C245.062 101.085 245.635 100.673 246.237 100.302L249.527 143.696H250.316L270.885 69.3751L194.807 89.4305L194.905 90.3436L239.382 93.6007C238.318 94.7274 237.737 95.3895 237.107 96.0035C208.762 123.331 178.981 149.073 147.023 172.327C127.518 186.514 107.333 199.676 85.1689 209.704C72.5074 215.417 59.4731 220.031 45.342 220.762C26.4129 221.74 12.9892 213.378 5.9264 196.232C2.83369 188.645 1.18863 180.726 0.366103 172.648C-0.0999972 167.975 -0.604481 147.226 2.17018 133.023Z" fill="#1060AB" fill-opacity="0.5"/>
</svg>
