<svg width="94" height="94" viewBox="0 0 94 94" fill="none" xmlns="http://www.w3.org/2000/svg">
<path d="M0 0V88.382C0 89.7608 0.521968 91.0832 1.45108 92.0582C2.38018 93.0332 3.64033 93.5809 4.95428 93.5809H89.1771V83.1831H9.90857V0H0Z" fill="#51A4F1"/>
<path d="M61.7369 60.2548C62.1976 60.7291 62.7447 61.1054 63.347 61.3621C63.9493 61.6189 64.5949 61.751 65.247 61.751C65.899 61.751 66.5447 61.6189 67.1469 61.3621C67.7492 61.1054 68.2964 60.7291 68.7571 60.2548L93.5808 34.7395L86.5606 27.5238L65.247 49.4312L53.8628 37.7299C53.4021 37.2556 52.855 36.8793 52.2527 36.6226C51.6504 36.3658 51.0048 36.2337 50.3527 36.2337C49.7007 36.2337 49.0551 36.3658 48.4528 36.6226C47.8505 36.8793 47.3033 37.2556 46.8427 37.7299L22.0189 63.2452L29.0391 70.4609L50.3527 48.5535L61.7369 60.2548Z" fill="#51A4F1"/>
</svg>
