<svg width="86" height="82" viewBox="0 0 86 82" fill="none" xmlns="http://www.w3.org/2000/svg">
<path d="M8.59986 82H49.9652C52.4466 82.0013 54.8988 81.4631 57.1532 80.4223C59.4075 79.3815 61.4104 77.8628 63.0241 75.9708L84.9623 50.2833C85.4217 49.7463 85.7425 49.1042 85.8964 48.4135C86.0502 47.7228 86.0325 47.0047 85.8448 46.3225C85.657 45.6403 85.3049 45.0149 84.8196 44.5014C84.3343 43.9879 83.7306 43.6021 83.0618 43.378L74.5995 40.5469C72.5543 39.8796 70.3767 39.7286 68.2594 40.1073C66.1422 40.4859 64.1506 41.3825 62.4608 42.7177L48.7655 53.71L46.1125 48.38C44.6911 45.5069 42.4966 43.0907 39.7775 41.405C37.0584 39.7193 33.9233 38.8315 30.7273 38.8421H8.59986C3.85704 38.8421 0 42.7134 0 47.4737V73.3684C0 78.1287 3.85704 82 8.59986 82ZM8.59986 47.4737H30.7273C34.0082 47.4737 36.9536 49.2993 38.4199 52.2426L40.3419 56.1053H21.4997V64.7369H47.3594C48.021 64.7281 48.6715 64.5656 49.26 64.2621L49.2729 64.2578L49.2901 64.2492H49.303L49.3116 64.2449H49.3288L49.3331 64.2405C49.3718 64.2535 49.346 64.2362 49.346 64.2362C49.389 64.2362 49.3546 64.2319 49.3546 64.2319H49.3589L49.3675 64.2276L49.3804 64.2233L49.389 64.219L49.3976 64.2146L49.4105 64.2103L49.4191 64.206C49.432 64.206 49.4234 64.2017 49.4277 64.2017L49.4406 64.1931L49.4492 64.1887L49.4578 64.1844L49.4707 64.1801L49.4793 64.1758H49.4836L49.4922 64.1715H49.4965L49.5051 64.1672L49.5137 64.1629C49.5524 64.1585 49.5266 64.1585 49.5266 64.1585L49.5352 64.1542C49.7009 64.0538 49.859 63.9413 50.0082 63.8176L67.8357 49.5021C68.9623 48.6044 70.5146 48.3239 71.8776 48.7814L74.2727 49.5841L56.5011 70.3992C55.6836 71.3308 54.6781 72.0774 53.5513 72.5893C52.4245 73.1012 51.2021 73.3668 49.9652 73.3684H8.59986V47.4737ZM60.199 4.0593e-05H60.1259C59.425 0.00867217 55.8002 0.168356 51.5992 3.04267C47.5099 0.24604 43.9711 0.0216192 43.1369 0.00435607L43.0079 4.0593e-05H42.9907C39.5465 4.0593e-05 36.3043 1.35088 33.8792 3.7893C31.4454 6.23635 30.0995 9.48614 30.0995 12.9474C30.0995 16.4087 31.4454 19.6585 33.8018 22.0278L48.4817 37.5042C48.8856 37.9251 49.37 38.2597 49.9058 38.4882C50.4416 38.7166 51.0179 38.8342 51.6001 38.8338C52.1823 38.8334 52.7584 38.715 53.2939 38.4858C53.8294 38.2566 54.3133 37.9213 54.7166 37.4999L69.3192 22.1012C71.7572 19.6585 73.0988 16.4087 73.0988 12.9474C73.0988 9.48614 71.7529 6.23635 69.3235 3.79362C68.1295 2.58755 66.709 1.63123 65.1443 0.980049C63.5795 0.328868 61.9016 -0.00423232 60.2076 4.0593e-05H60.199ZM64.499 12.9474C64.499 14.0997 64.0518 15.183 63.1617 16.0763L51.5992 28.2684L39.9593 15.9987C39.1466 15.183 38.6994 14.0997 38.6994 12.9474C38.6994 11.7951 39.1466 10.7118 39.9636 9.89182C40.7411 9.09796 41.7999 8.64495 42.909 8.63161C43.0165 8.63593 45.0676 8.76972 47.497 10.7248C47.8453 11.0053 48.1979 11.3247 48.5591 11.6829L51.5992 14.7341L54.6392 11.6829C55.0004 11.3247 55.353 11.0053 55.7013 10.7248C57.976 8.89056 59.898 8.66183 60.2248 8.63593C60.7853 8.63583 61.3402 8.74714 61.8575 8.96343C62.3749 9.17973 62.8444 9.49673 63.2391 9.89614C64.0518 10.7118 64.499 11.7951 64.499 12.9474Z" fill="#51A4F1"/>
</svg>
