<svg width="96" height="84" viewBox="0 0 96 84" fill="none" xmlns="http://www.w3.org/2000/svg">
<path d="M74.852 38.7837C77.782 33.6753 79.0473 27.7456 78.4649 21.8527C77.6037 13.0723 72.8123 5.31061 64.9804 0L59.6645 8.1997C65.0477 11.8517 68.3238 17.054 68.8915 22.8371C69.1533 25.5249 68.8262 28.2386 67.9341 30.7808C67.042 33.323 65.6073 35.6299 63.7344 37.5336L58 43.4003L65.7838 45.7382C86.1428 51.8412 86.3785 72.7884 86.3785 73H96C96 64.1949 91.4009 46.9883 74.852 38.7837Z" fill="#51A4F1"/>
<path d="M38 44C49.1771 44 58.2667 35.03 58.2667 24C58.2667 12.97 49.1771 4 38 4C26.8229 4 17.7333 12.97 17.7333 24C17.7333 35.03 26.8229 44 38 44ZM38 14C43.5885 14 48.1333 18.485 48.1333 24C48.1333 29.515 43.5885 34 38 34C32.4115 34 27.8667 29.515 27.8667 24C27.8667 18.485 32.4115 14 38 14ZM45.6 49H30.4C13.6344 49 0 62.455 0 79V84H10.1333V79C10.1333 67.97 19.2229 59 30.4 59H45.6C56.7771 59 65.8667 67.97 65.8667 79V84H76V79C76 62.455 62.3656 49 45.6 49Z" fill="#51A4F1"/>
</svg>
