<svg width="102" height="102" viewBox="0 0 102 102" fill="none" xmlns="http://www.w3.org/2000/svg">
<path d="M50.8333 0C22.8038 0 0 22.8038 0 50.8333C0 78.8628 22.8038 101.667 50.8333 101.667C78.8628 101.667 101.667 78.8628 101.667 50.8333C101.667 22.8038 78.8628 0 50.8333 0ZM50.8333 91.5C28.4108 91.5 10.1667 73.2559 10.1667 50.8333C10.1667 28.4108 28.4108 10.1667 50.8333 10.1667C73.2559 10.1667 91.5 28.4108 91.5 50.8333C91.5 73.2559 73.2559 91.5 50.8333 91.5Z" fill="#51A4F1"/>
<path d="M42.8642 58.9007L31.1777 47.2344L24 54.4324L42.8744 73.2662L76.9633 39.1773L69.7754 31.9895L42.8642 58.9007Z" fill="#51A4F1"/>
</svg>
