<svg width="317" height="300" viewBox="0 0 317 300" fill="none" xmlns="http://www.w3.org/2000/svg">
<path d="M0 94.7319V157.902H15.85V252.618H0V299.984H253.6L301.15 300V299.984H317V252.618H301.15V157.902H317V94.7319L158.5 0L0 94.7319ZM63.4 252.618V157.902H95.1V252.618H63.4ZM142.65 252.618V157.902H174.35V252.618H142.65ZM253.6 252.618H221.9V157.902H253.6V252.618ZM190.2 94.7319C190.199 98.8797 189.378 102.987 187.783 106.818C186.189 110.65 183.852 114.131 180.907 117.064C177.962 119.996 174.466 122.322 170.619 123.908C166.771 125.494 162.648 126.31 158.484 126.309C154.32 126.308 150.197 125.49 146.351 123.902C142.504 122.314 139.009 119.986 136.066 117.052C133.122 114.119 130.787 110.636 129.195 106.804C127.602 102.971 126.783 98.8639 126.784 94.7161C126.786 86.3392 130.129 78.3062 136.077 72.3843C142.025 66.4624 150.091 63.1367 158.5 63.1388C166.909 63.1409 174.974 66.4706 180.919 72.3955C186.863 78.3203 190.202 86.3549 190.2 94.7319Z" fill="#51A4F1"/>
</svg>
