<svg width="270" height="298" viewBox="0 0 270 298" fill="none" xmlns="http://www.w3.org/2000/svg">
<path d="M127.403 296.233C131.802 298.599 137.322 298.584 141.721 296.218C261.591 231.364 270.104 104.655 269.999 68.6267C269.988 65.731 269.138 62.9016 267.554 60.4848C265.97 58.0681 263.721 56.1689 261.082 55.0201L140.644 1.28654C138.727 0.435622 136.655 -0.00258338 134.56 1.14569e-05C132.466 0.00260629 130.395 0.445943 128.48 1.3016L8.87945 55.0351C6.27912 56.1846 4.06171 58.0628 2.49138 60.4458C0.921051 62.8288 0.0640082 65.6163 0.0223544 68.476C-0.48633 104.323 6.68014 231.304 127.403 296.233ZM85.3018 123.536L119.608 158.087L183.837 93.399L204.992 114.706L119.608 200.7L64.1465 144.842L85.3018 123.536Z" fill="#51A4F1"/>
</svg>
