<svg width="30" height="30" viewBox="0 0 30 30" fill="none" xmlns="http://www.w3.org/2000/svg">
<path d="M15 2.70269C19.0052 2.70269 19.4796 2.71799 21.0613 2.79016C22.5238 2.85684 23.318 3.10121 23.8466 3.30663C24.5467 3.57874 25.0464 3.90378 25.5713 4.42864C26.0962 4.95357 26.4212 5.45325 26.6934 6.15341C26.8988 6.68197 27.1431 7.4762 27.2098 8.93868C27.282 10.5204 27.2973 10.9948 27.2973 14.9999C27.2973 19.0051 27.282 19.4795 27.2098 21.0612C27.1431 22.5237 26.8988 23.3179 26.6934 23.8465C26.4212 24.5466 26.0962 25.0463 25.5713 25.5712C25.0464 26.0961 24.5467 26.4212 23.8466 26.6933C23.318 26.8987 22.5238 27.1431 21.0613 27.2097C19.4798 27.2819 19.0055 27.2972 15 27.2972C10.9945 27.2972 10.5202 27.2819 8.93871 27.2097C7.47623 27.1431 6.68199 26.8987 6.15343 26.6933C5.45327 26.4212 4.95359 26.0961 4.42872 25.5712C3.90385 25.0463 3.57875 24.5466 3.30664 23.8465C3.10122 23.3179 2.85685 22.5237 2.79017 21.0612C2.718 19.4795 2.7027 19.0051 2.7027 14.9999C2.7027 10.9948 2.718 10.5204 2.79017 8.93868C2.85685 7.4762 3.10122 6.68197 3.30664 6.15341C3.57875 5.45325 3.90379 4.95357 4.42872 4.4287C4.95359 3.90378 5.45327 3.57874 6.15343 3.30663C6.68199 3.10121 7.47623 2.85684 8.93871 2.79016C10.5204 2.71799 10.9948 2.70269 15 2.70269ZM15 0C10.9262 0 10.4154 0.0172673 8.81552 0.0902663C7.21894 0.163087 6.12854 0.416678 5.17443 0.787448C4.18805 1.17078 3.35153 1.68368 2.51758 2.51757C1.68369 3.35152 1.17079 4.18803 0.78751 5.17441C0.416679 6.12852 0.163087 7.21892 0.0902666 8.81549C0.0172674 10.4154 0 10.9262 0 14.9999C0 19.0737 0.0172674 19.5845 0.0902666 21.1844C0.163087 22.781 0.416679 23.8714 0.78751 24.8255C1.17079 25.8119 1.68369 26.6484 2.51758 27.4823C3.35153 28.3162 4.18805 28.8291 5.17443 29.2124C6.12854 29.5832 7.21894 29.8368 8.81552 29.9096C10.4154 29.9826 10.9262 29.9999 15 29.9999C19.0738 29.9999 19.5846 29.9826 21.1845 29.9096C22.7811 29.8368 23.8715 29.5832 24.8256 29.2124C25.812 28.8291 26.6485 28.3162 27.4824 27.4823C28.3163 26.6484 28.8292 25.8119 29.2125 24.8255C29.5833 23.8714 29.8369 22.781 29.9097 21.1844C29.9827 19.5845 30 19.0737 30 14.9999C30 10.9262 29.9827 10.4154 29.9097 8.81549C29.8369 7.21892 29.5833 6.12852 29.2125 5.17441C28.8292 4.18803 28.3163 3.35152 27.4824 2.51757C26.6485 1.68368 25.812 1.17078 24.8256 0.787448C23.8715 0.416678 22.7811 0.163087 21.1845 0.0902663C19.5846 0.0172673 19.0738 0 15 0Z" fill="white"/>
<path d="M15.007 7.3042C10.7529 7.3042 7.30432 10.7528 7.30432 15.0068C7.30432 19.261 10.7529 22.7095 15.007 22.7095C19.2611 22.7095 22.7097 19.261 22.7097 15.0068C22.7097 10.7528 19.2611 7.3042 15.007 7.3042ZM15.007 20.0069C12.2456 20.0069 10.007 17.7683 10.007 15.0068C10.007 12.2454 12.2456 10.0069 15.007 10.0069C17.7685 10.0069 20.007 12.2454 20.007 15.0068C20.007 17.7683 17.7685 20.0069 15.007 20.0069Z" fill="white"/>
<path d="M24.8135 6.99522C24.8135 7.98928 24.0076 8.79519 23.0135 8.79519C22.0194 8.79519 21.2135 7.98928 21.2135 6.99522C21.2135 6.0011 22.0194 5.19519 23.0135 5.19519C24.0076 5.19519 24.8135 6.0011 24.8135 6.99522Z" fill="white"/>
</svg>
