<svg width="30" height="29" viewBox="0 0 30 29" fill="none" xmlns="http://www.w3.org/2000/svg">
<path fill-rule="evenodd" clip-rule="evenodd" d="M6.51102 3.11439C6.51102 4.81224 5.21825 6.18628 3.19657 6.18628C1.25367 6.18628 -0.0391053 4.81224 0.000903074 3.11439C-0.0391053 1.33402 1.25364 0 3.2353 0C5.21822 0 6.47226 1.33402 6.51102 3.11439ZM0.163443 28.3896V8.61302H6.30972V28.3884H0.163443V28.3896Z" fill="white"/>
<path fill-rule="evenodd" clip-rule="evenodd" d="M11.236 14.9245C11.236 12.4578 11.1548 10.3548 11.0735 8.61571H16.4121L16.6959 11.325H16.8172C17.6261 10.071 19.6478 8.17188 22.9235 8.17188C26.9668 8.17188 30 10.8412 30 16.6624V28.3923H23.8536V17.4325C23.8536 14.8833 22.9647 13.1454 20.7405 13.1454C19.0414 13.1454 18.0312 14.3181 17.6274 15.4496C17.4648 15.8547 17.3848 16.4198 17.3848 16.9874V28.3923H11.2385V14.9245H11.236Z" fill="white"/>
</svg>
