<svg width="30" height="36" viewBox="0 0 30 36" fill="none" xmlns="http://www.w3.org/2000/svg">
<path fill-rule="evenodd" clip-rule="evenodd" d="M15 0C23.2709 0 30 6.78 30 15.1145C30 25.36 18.2618 35.4545 15 35.4545C11.7382 35.4545 0 25.36 0 15.1145C0 6.78 6.72909 0 15 0ZM15 2.72727C8.23273 2.72727 2.72727 8.28545 2.72727 15.1145C2.72727 23.8036 12.9527 32.2691 15 32.72C17.0473 32.2673 27.2727 23.8018 27.2727 15.1145C27.2727 8.28545 21.7673 2.72727 15 2.72727ZM15.0018 9.09091C18.26 9.09091 20.9109 11.7418 20.9109 15.0018C20.9109 18.26 18.26 20.9091 15.0018 20.9091C11.7436 20.9091 9.09273 18.26 9.09273 15.0018C9.09273 11.7418 11.7436 9.09091 15.0018 9.09091ZM15.0018 11.8182C13.2473 11.8182 11.82 13.2455 11.82 15.0018C11.82 16.7564 13.2473 18.1818 15.0018 18.1818C16.7564 18.1818 18.1836 16.7564 18.1836 15.0018C18.1836 13.2455 16.7564 11.8182 15.0018 11.8182Z" fill="white"/>
</svg>
