<svg width="50" height="51" viewBox="0 0 50 51" fill="none" xmlns="http://www.w3.org/2000/svg">
<path d="M0.318209 20.1502C2.26478 9.85377 10.6268 1.87704 20.9417 0.233484C21.6927 0.113776 25.9766 -0.00916653 26.1197 0.000539496C29.7757 0.298191 33.3102 1.11107 36.5722 2.83146C46.1121 7.85919 51.8505 18.827 49.4569 30.3764C47.237 41.0861 38.1835 49.2028 27.3612 50.2478C24.9491 50.4808 22.5916 50.2697 20.3476 49.2983C18.4179 48.4643 17.2118 47.0287 16.9585 44.8885C16.7801 43.3622 17.0671 41.882 17.5358 40.4358C18.491 37.4884 20.0083 34.8258 21.7104 32.2666C25.8038 26.1138 30.6682 20.6097 35.8534 15.3805C35.9328 15.3123 36.0169 15.2499 36.1051 15.1937L36.5875 21.7671H36.7033L39.7192 10.5089L28.564 13.5469L28.5785 13.6852L35.1 14.1786C34.944 14.3493 34.8588 14.4496 34.7663 14.5426C30.6103 18.6822 26.2436 22.5816 21.5576 26.1041C18.6977 28.2532 15.738 30.2469 12.4881 31.7659C10.6316 32.6314 8.72039 33.3302 6.64839 33.441C3.87285 33.5891 1.90457 32.3224 0.868974 29.7252C0.415497 28.5759 0.174286 27.3764 0.0536808 26.1526C-0.0146624 25.4449 -0.0886336 22.3018 0.318209 20.1502Z" fill="white"/>
</svg>
