<svg width="50" height="50" viewBox="0 0 50 50" fill="none" xmlns="http://www.w3.org/2000/svg">
<path d="M0.318209 19.8404C2.26478 9.87371 10.6268 2.15248 20.9417 0.561576C21.6927 0.445703 25.9766 0.326698 26.1197 0.336094C29.7757 0.624211 33.3102 1.41105 36.5722 3.07634C46.1121 7.94301 51.8505 18.5595 49.4569 29.7389C47.237 40.1057 38.1835 47.9623 27.3612 48.9739C24.9491 49.1994 22.5916 48.995 20.3476 48.0547C18.4179 47.2475 17.2118 45.8578 16.9585 43.7862C16.7801 42.3088 17.0671 40.8761 17.5358 39.4762C18.491 36.6232 20.0083 34.0458 21.7104 31.5686C25.8038 25.6129 30.6682 20.2851 35.8534 15.2235C35.9328 15.1574 36.0169 15.097 36.1051 15.0426L36.5875 21.4054H36.7033L39.7192 10.5079L28.564 13.4486L28.5785 13.5824L35.1 14.06C34.944 14.2252 34.8588 14.3223 34.7663 14.4123C30.6103 18.4194 26.2436 22.1938 21.5576 25.6035C18.6977 27.6837 15.738 29.6136 12.4881 31.084C10.6316 31.9217 8.72039 32.5982 6.64839 32.7054C3.87285 32.8487 1.90457 31.6226 0.868974 29.1087C0.415497 27.9961 0.174286 26.835 0.0536808 25.6505C-0.0146624 24.9654 -0.0886337 21.923 0.318209 19.8404Z" fill="#1060AB"/>
</svg>
