<svg width="25" height="25" viewBox="0 0 25 25" fill="none" xmlns="http://www.w3.org/2000/svg">
<path fill-rule="evenodd" clip-rule="evenodd" d="M12.5 0C19.3925 0 25 5.42747 25 12.0987C25 18.7699 19.3925 24.1974 12.5 24.1974C5.6075 24.1974 0 18.7699 0 12.0987C0 5.42747 5.6075 0 12.5 0ZM12.5 1.8148C6.64125 1.8148 1.875 6.42804 1.875 12.0987C1.875 17.7694 6.64125 22.3826 12.5 22.3826C18.3587 22.3826 23.125 17.7694 23.125 12.0987C23.125 6.42804 18.3587 1.8148 12.5 1.8148ZM12.0765 6.16477C12.5952 6.16477 13.014 6.57128 13.014 7.07217V12.4222L17.2703 14.8782C17.714 15.136 17.8602 15.6925 17.5952 16.1232C17.419 16.4075 17.1077 16.566 16.789 16.566C16.6252 16.566 16.4603 16.5249 16.309 16.439L11.5965 13.718C11.314 13.5534 11.139 13.257 11.139 12.9376V7.07217C11.139 6.57128 11.559 6.16477 12.0765 6.16477Z" fill="white"/>
</svg>
